<?xml version="1.0" encoding="UTF-8" standalone="no"?>
<svg
   xmlns:dc="http://purl.org/dc/elements/1.1/"
   xmlns:cc="http://creativecommons.org/ns#"
   xmlns:rdf="http://www.w3.org/1999/02/22-rdf-syntax-ns#"
   xmlns:svg="http://www.w3.org/2000/svg"
   xmlns="http://www.w3.org/2000/svg"
   id="svg947"
   style="clip-rule:evenodd;fill-rule:evenodd;stroke-linecap:round;stroke-linejoin:round;stroke-miterlimit:1.5"
   xml:space="preserve"
   version="1.1"
   viewBox="0 0 672.00001 672.00003"
   height="7in"
   width="7in"><metadata
   id="metadata953"><rdf:RDF><cc:Work
       rdf:about=""><dc:format>image/svg+xml</dc:format><dc:type
         rdf:resource="http://purl.org/dc/dcmitype/StillImage" /><dc:title></dc:title></cc:Work></rdf:RDF></metadata><defs
   id="defs951">
        
        
        
        
        
        
        
        
    <linearGradient
   gradientTransform="translate(1.2203347,-4.8813471)"
   y2="144"
   x2="276.6619"
   y1="144"
   x1="11.3381"
   gradientUnits="userSpaceOnUse"
   id="SVGID_1_-1"><stop
     id="stop850-3"
     style="stop-color:#B38C30"
     offset="0" /><stop
     id="stop852-7"
     style="stop-color:#F2DE98"
     offset="1" /></linearGradient></defs>
    <g
   transform="matrix(8.0134463,-0.61542838,0.57707593,7.5140325,-224.79791,-183.45367)"
   id="g906">
            <path
   d="m 101.667,55.665 c 0,-4.644 -3.536,-8.415 -7.891,-8.415 H 34.391 c -4.355,0 -7.891,3.771 -7.891,8.415 v 32.67 c 0,4.644 3.536,8.415 7.891,8.415 h 59.385 c 4.355,0 7.891,-3.771 7.891,-8.415 z"
   style="fill:#403c3c;stroke:#676767;stroke-width:1.55999994px"
   id="path904" />
        </g><g
   transform="matrix(3.8405464,-0.28081188,0.29027336,3.9699463,-22.993991,110.1031)"
   id="g910">
            <rect
   x="30.333"
   y="15.958"
   width="123.333"
   height="10.333"
   style="fill:#989898"
   id="rect908" />
        </g><g
   transform="matrix(3.8443014,-0.22365281,0.21741732,3.7371369,-3.322253,118.34862)"
   id="g914">
            <rect
   x="30.333"
   y="15.958"
   width="123.333"
   height="10.333"
   style="fill:#d4d4d4"
   id="rect912" />
        </g><g
   transform="matrix(8.3146924,0,0,7.5028043,-200.36838,-189.44693)"
   id="g918">
            <path
   d="m 101.667,55.665 c 0,-4.644 -3.403,-8.415 -7.594,-8.415 h -59.98 c -4.191,0 -7.593,3.771 -7.593,8.415 v 32.67 c 0,4.644 3.402,8.415 7.593,8.415 h 59.98 c 4.191,0 7.594,-3.771 7.594,-8.415 z"
   style="fill:#545454;stroke:#676767;stroke-width:1.54999995px"
   id="path916" />
        </g><g
   transform="translate(0,547.00007)"
   style="display:inline"
   id="layer1"><g
     id="g922"
     transform="matrix(3.6074755,0,0,3.1676851,24.481313,-551.22181)"
     style="clip-rule:evenodd;fill-rule:evenodd;stroke-linecap:round;stroke-linejoin:round;stroke-miterlimit:1.5">
            <path
   id="path920"
   style="fill:#545454;stroke:#676767;stroke-width:5.17999983px"
   d="m 174.197,108.212 c 0,-3.207 -2.286,-5.81 -5.101,-5.81 h -31.213 c -2.816,0 -5.102,2.603 -5.102,5.81 v 13.64 c 0,3.206 2.286,5.809 5.102,5.809 h 31.213 c 2.815,0 5.101,-2.603 5.101,-5.809 z" />
        </g><g
     id="g926"
     transform="matrix(4.2945691,0,0,4.3255294,-62.20745,-679.73088)"
     style="clip-rule:evenodd;fill-rule:evenodd;stroke-linecap:round;stroke-linejoin:round;stroke-miterlimit:1.5">
            <circle
   id="circle924"
   style="fill:#ffffff"
   r="5.006"
   cy="113.78"
   cx="140.291" />
        </g></g>
<g
   transform="matrix(1.2927204,0,0,1.2927204,121.726,170.09188)"
   id="g5203"><circle
     style="opacity:1;fill:#ffffff;fill-opacity:1;stroke-width:4.17688942;stroke-miterlimit:4;stroke-dasharray:none;paint-order:stroke fill markers"
     id="path1407"
     cx="145.22034"
     cy="139.11865"
     r="132.5" /><path
     class="st4"
     d="m 145.22034,6.4186531 c -73.300005,0 -132.700005,59.3999999 -132.700005,132.6999869 0,73.30001 59.4,132.70001 132.700005,132.70001 73.3,0 132.7,-59.4 132.7,-132.70001 0,-73.299987 -59.4,-132.6999869 -132.7,-132.6999869 z M 85.320335,104.81865 c 0,-16.399997 13.3,-29.599997 29.800005,-29.599997 h 68 c 8.1,0 15.5,3.3 20.8,8.5 l -34.8,17.499997 h -47.9 c -5.4,0 -9.7,3.9 -9.7,8.6 v 21.29999 l -26.100005,13.6 v -39.89999 z m 127.300005,44.29999 c 0,16.4 -13.3,29.6 -29.6,29.6 h -71.6 v 25.30001 c 0,4.3 -3.20001,7.8 -7.00001,8.7 l -8.899995,0.2 h -10.2 v -9 -12.70001 -22.3 l 34.100005,-17.8 h 57.3 c 5.4,0 9.9,-3.9 9.9,-8.7 v -25.99999 l 26,-13.1 c 0,0.5 0,1 0,1.5 z"
     id="path855"
     style="fill:url(#SVGID_1_-1)" /></g></svg>